# xmcd
#
# Track frame offsets: 
#        150
#        13412
#        26041
#        39434
#        52661
#        64646
#        76727
#        90187
#        102533
#        115033
#        128309
#        141386
#        154293
#        167116
#        179528
#        192224
#        205244
#        219078
#        232721
#        243484
#        255601
#        268561
#        279876
#        292976
#        306802
#
# Disc length: 4249 seconds
#
# Revision: 3
# Processed by: cddbd v1.5.2PL0 Copyright (c) Steve Scherf et al.
# Submitted via: ExactAudioCopy v0.95b4
#
DISCID=49109719
DTITLE=Hoosier Hot Shots - Everybody Stomp [disc 4: Way Down in Arkans
DTITLE=as]
DYEAR=2003
DGENRE=Novelty
TTITLE0=Way Down in Arkansas
TTITLE1=That's Where I Meet My Girl
TTITLE2=I Just Wanna Play with You
TTITLE3=When There's a Tear in the Eyes of a Potato
TTITLE4=Beatrix Fairfax Tell Me What to Do
TTITLE5=St. Louis Blues
TTITLE6=Keep an Eye on Your Heart [v:Sally Foster]
TTITLE7=With a Twist of the Wrist [v:Sally Foster]
TTITLE8=Swing Little Indians Swing
TTITLE9=Dude Cowboy
TTITLE10=The Band Played On
TTITLE11=Since We Put the Radio in the Henhouse
TTITLE12=He's a Hillbilly Gaucho
TTITLE13=When Lightnin' Struck the Coon Creek Party Line
TTITLE14=She Broke My Heart in Three Places
TTITLE15=She Was a Washout in the Blackout
TTITLE16=The Musket Came Down from the Door
TTITLE17=Them Hill-Billies Are Mountain Williams Now
TTITLE18=Sentimental Gentleman from Georgia
TTITLE19=Is It True What They Say About Dixie
TTITLE20=Sioux City Sue
TTITLE21=When Johnny Brings Lelahani Home
TTITLE22=You Two Timed Me Once Too Often
TTITLE23=There's a Tear in My Beer Tonight
TTITLE24=Divorce Me C.O.D.
EXTD=Ken Trietsch (1903/1987): guitar, vocals, leader\nPaul "Hezzie" T
EXTD=rietsch (1905/1979): whistle, "zither", washboard, percussion, vo
EXTD=cals\nCharles "Gabe" Ward (1904/1992): clarinet, vocals\nFrank Ke
EXTD=ttering (1909/1973) [left HHS 1943 when drafted], Gil Taylor [joi
EXTD=ned HHS 1943]: bass, vocals\nDisc 4 recorded 1940-10-02/1946-11-1
EXTD=5 in Chicago US-IL, New York US-NY, and Hollywood US-CA.\nSee <ht
EXTD=tp://www.propermusic.com/products.asp?recnumber=70> for session a
EXTD=nd discographical details.\nCompiled and annotated by Adam Komoro
EXTD=wski - produced for release by Joop Visser Productions.\nDigital r
EXTD=emastering by Peter Rynston at Tall Order Mastering.\nDisc 4/4 ("
EXTD=Way Down in Arkansas"): Proper Records P1352 (2003), UPC 80552001
EXTD=3529.\n4CD: Proper Records PROPERBOX 63 (2003-08, 2005), UPC 8055
EXTD=20020633.
EXTT0=(Sammy Fain)
EXTT1=
EXTT2=(David Mack/Solomon Joseph)
EXTT3=(Frank Yacich/Chris Yacich/Clarke van Ness)
EXTT4=
EXTT5=(William C.Handy)
EXTT6=
EXTT7=
EXTT8=
EXTT9=
EXTT10=(Pelfrey/Rhodes)
EXTT11=
EXTT12=
EXTT13=
EXTT14=(Drake/Hoffman/Livingston)
EXTT15=(Johnny Bond)
EXTT16=
EXTT17=(Kavanaugh/Sanford/Mysels)
EXTT18=(Mitchell Parish/Frank Perkins)
EXTT19=(Carson/Sammy Lerner/Gerald Marks)
EXTT20=(Ray Freedman/Dick Thomas)
EXTT21=
EXTT22=(Jenny Lou Carson)
EXTT23=(Hank Williams)
EXTT24=(Travis/Stone)
PLAYORDER=
